# BeamLab sample reference mesh: the Sheet Car's skin (tools/make_sheet_car.py); -x forward, y up, +z left
v -2.1200 0.3060 -0.6790
v -2.1200 0.4860 -0.6790
v -1.9800 0.6480 -0.7120
v -1.8000 0.7020 -0.7450
v -1.5730 0.7490 -0.7720
v -1.4500 0.7740 -0.7780
v -1.3200 0.7920 -0.7800
v -1.0500 0.8280 -0.7800
v -0.8000 0.8640 -0.7800
v -0.6200 1.0260 -0.7800
v -0.4200 1.2060 -0.7800
v -0.2500 1.3140 -0.7800
v 0.1500 1.3500 -0.7800
v 0.6000 1.3410 -0.7800
v 0.8400 1.2850 -0.7800
v 0.9500 1.2600 -0.7800
v 1.2500 1.0620 -0.7800
v 1.5500 0.8910 -0.7730
v 1.8500 0.7560 -0.7370
v 2.0500 0.5760 -0.6960
v 2.0500 0.3240 -0.6960
v -1.8000 0.7300 -0.5350
v -0.8000 0.9050 -0.5600
v 0.1500 1.4310 -0.5600
v 0.9500 1.3330 -0.5600
v 1.8500 0.7880 -0.5290
v -2.1200 0.3000 -0.2520
v -1.9800 0.6790 -0.2650
v -1.8000 0.7390 -0.2770
v -1.5730 0.7910 -0.2870
v -1.3200 0.8390 -0.2900
v -0.8000 0.9190 -0.2900
v 0.1500 1.4580 -0.2900
v 0.9500 1.3580 -0.2900
v 1.2500 1.1390 -0.2900
v 1.8500 0.7990 -0.2740
v 2.0500 0.3200 -0.2590
v -2.1200 0.3000 0.0000
v -1.9800 0.6800 0.0000
v -1.8000 0.7400 0.0000
v -1.5730 0.7920 0.0000
v -1.3200 0.8390 0.0000
v -0.8000 0.9200 0.0000
v 0.1500 1.4600 0.0000
v 0.9500 1.3600 0.0000
v 1.2500 1.1400 0.0000
v 1.8500 0.8000 0.0000
v 2.0500 0.3200 0.0000
v -2.1200 0.3000 0.2520
v -1.9800 0.6790 0.2650
v -1.8000 0.7390 0.2770
v -1.5730 0.7910 0.2870
v -1.3200 0.8390 0.2900
v -0.8000 0.9190 0.2900
v 0.1500 1.4580 0.2900
v 0.9500 1.3580 0.2900
v 1.2500 1.1390 0.2900
v 1.8500 0.7990 0.2740
v 2.0500 0.3200 0.2590
v -1.8000 0.7300 0.5350
v -0.8000 0.9050 0.5600
v 0.1500 1.4310 0.5600
v 0.9500 1.3330 0.5600
v 1.8500 0.7880 0.5290
v -2.1200 0.3060 0.6790
v -2.1200 0.4860 0.6790
v -1.9800 0.6480 0.7120
v -1.8000 0.7020 0.7450
v -1.5730 0.7490 0.7720
v -1.4500 0.7740 0.7780
v -1.3200 0.7920 0.7800
v -1.0500 0.8280 0.7800
v -0.8000 0.8640 0.7800
v -0.6200 1.0260 0.7800
v -0.4200 1.2060 0.7800
v -0.2500 1.3140 0.7800
v 0.1500 1.3500 0.7800
v 0.6000 1.3410 0.7800
v 0.8400 1.2850 0.7800
v 0.9500 1.2600 0.7800
v 1.2500 1.0620 0.7800
v 1.5500 0.8910 0.7730
v 1.8500 0.7560 0.7370
v 2.0500 0.5760 0.6960
v 2.0500 0.3240 0.6960
v -2.1200 0.3600 0.6790
v -1.9800 0.3600 0.7120
v -1.8000 0.5310 0.7450
v -1.8000 0.3600 0.7450
v -1.0500 0.6920 0.7800
v -0.8000 0.6120 0.7800
v -0.8000 0.3600 0.7800
v -0.6200 0.6930 0.7800
v -0.6200 0.3600 0.7800
v -0.4200 0.9690 0.7800
v -0.4200 0.3600 0.7800
v -0.2500 1.0470 0.7800
v -0.2500 0.3600 0.7800
v 0.1500 1.0730 0.7800
v 0.1500 0.8060 0.7800
v 0.1500 0.5580 0.7800
v 0.1500 0.3600 0.7800
v 0.6000 1.0660 0.7800
v 0.6000 0.3600 0.7800
v 0.8400 1.0260 0.7800
v 0.8400 0.3600 0.7800
v 0.9500 0.9390 0.7800
v 0.9500 0.6180 0.7800
v 1.2500 0.7770 0.7800
v 1.5500 0.7060 0.7730
v 1.8500 0.5580 0.7370
v 1.8500 0.3600 0.7370
v 2.0500 0.3600 0.6960
v -2.1200 0.3600 -0.6790
v -1.9800 0.3600 -0.7120
v -1.8000 0.5310 -0.7450
v -1.8000 0.3600 -0.7450
v -1.0500 0.6920 -0.7800
v -0.8000 0.6120 -0.7800
v -0.8000 0.3600 -0.7800
v -0.6200 0.6930 -0.7800
v -0.6200 0.3600 -0.7800
v -0.4200 0.9690 -0.7800
v -0.4200 0.3600 -0.7800
v -0.2500 1.0470 -0.7800
v -0.2500 0.3600 -0.7800
v 0.1500 1.0730 -0.7800
v 0.1500 0.8060 -0.7800
v 0.1500 0.5580 -0.7800
v 0.1500 0.3600 -0.7800
v 0.6000 1.0660 -0.7800
v 0.6000 0.3600 -0.7800
v 0.8400 1.0260 -0.7800
v 0.8400 0.3600 -0.7800
v 0.9500 0.9390 -0.7800
v 0.9500 0.6180 -0.7800
v 1.2500 0.7770 -0.7800
v 1.5500 0.7060 -0.7730
v 1.8500 0.5580 -0.7370
v 1.8500 0.3600 -0.7370
v 2.0500 0.3600 -0.6960
v -2.1200 0.3020 -0.4870
v -2.1200 0.4960 -0.4870
v -1.9800 0.6710 -0.5110
v -1.5730 0.7800 -0.5540
v -1.4500 0.8080 -0.5590
v -1.3200 0.8270 -0.5600
v -1.0500 0.8660 -0.5600
v -0.6200 1.0800 -0.5600
v -0.4200 1.2750 -0.5600
v -0.2500 1.3920 -0.5600
v 0.6000 1.4210 -0.5600
v 0.8400 1.3610 -0.5600
v 1.2500 1.1190 -0.5600
v 1.5500 0.9340 -0.5550
v 2.0500 0.5940 -0.5000
v 2.0500 0.3210 -0.5000
v -2.1200 0.5000 -0.2520
v -1.4500 0.8190 -0.2890
v -1.0500 0.8790 -0.2900
v -0.6200 1.0990 -0.2900
v -0.4200 1.2980 -0.2900
v -0.2500 1.4180 -0.2900
v 0.6000 1.4480 -0.2900
v 0.8400 1.3860 -0.2900
v 1.5500 0.9490 -0.2870
v 2.0500 0.6000 -0.2590
v -2.1200 0.5000 0.0000
v -1.4500 0.8200 0.0000
v -1.0500 0.8800 0.0000
v -0.6200 1.1000 0.0000
v -0.4200 1.3000 0.0000
v -0.2500 1.4200 0.0000
v 0.6000 1.4500 0.0000
v 0.8400 1.3880 0.0000
v 1.5500 0.9500 0.0000
v 2.0500 0.6000 0.0000
v -2.1200 0.5000 0.2520
v -1.4500 0.8190 0.2890
v -1.0500 0.8790 0.2900
v -0.6200 1.0990 0.2900
v -0.4200 1.2980 0.2900
v -0.2500 1.4180 0.2900
v 0.6000 1.4480 0.2900
v 0.8400 1.3860 0.2900
v 1.5500 0.9490 0.2870
v 2.0500 0.6000 0.2590
v -2.1200 0.3020 0.4870
v -2.1200 0.4960 0.4870
v -1.9800 0.6710 0.5110
v -1.5730 0.7800 0.5540
v -1.4500 0.8080 0.5590
v -1.3200 0.8270 0.5600
v -1.0500 0.8660 0.5600
v -0.6200 1.0800 0.5600
v -0.4200 1.2750 0.5600
v -0.2500 1.3920 0.5600
v 0.6000 1.4210 0.5600
v 0.8400 1.3610 0.5600
v 1.2500 1.1190 0.5600
v 1.5500 0.9340 0.5550
v 2.0500 0.5940 0.5000
v 2.0500 0.3210 0.5000
v -0.4200 0.7410 0.7800
v -0.4200 0.5290 0.7800
v -0.2500 0.7890 0.7800
v -0.2500 0.5510 0.7800
v 0.6000 0.8010 0.7800
v 0.6000 0.5560 0.7800
v 0.8400 0.7760 0.7800
v 0.8400 0.5450 0.7800
v -0.4200 0.7410 -0.7800
v -0.4200 0.5290 -0.7800
v -0.2500 0.7890 -0.7800
v -0.2500 0.5510 -0.7800
v 0.6000 0.8010 -0.7800
v 0.6000 0.5560 -0.7800
v 0.8400 0.7760 -0.7800
v 0.8400 0.5450 -0.7800
f 1 143 2
f 1 142 143
f 2 143 3
f 3 143 144
f 3 22 4
f 3 144 22
f 4 22 5
f 5 22 145
f 5 146 6
f 5 145 146
f 6 146 7
f 7 146 147
f 7 148 8
f 7 147 148
f 8 148 9
f 9 148 23
f 9 149 10
f 9 23 149
f 10 149 11
f 11 149 150
f 11 151 12
f 11 150 151
f 12 151 13
f 13 151 24
f 13 152 14
f 13 24 152
f 14 152 15
f 15 152 153
f 15 25 16
f 15 153 25
f 16 25 17
f 17 25 154
f 17 155 18
f 17 154 155
f 18 155 19
f 19 155 26
f 19 156 20
f 19 26 156
f 20 156 21
f 21 156 157
f 142 27 143
f 143 27 158
f 143 28 144
f 143 158 28
f 144 28 22
f 22 28 29
f 22 30 145
f 22 29 30
f 145 30 146
f 146 30 159
f 146 31 147
f 146 159 31
f 147 31 148
f 148 31 160
f 148 32 23
f 148 160 32
f 23 32 149
f 149 32 161
f 149 162 150
f 149 161 162
f 150 162 151
f 151 162 163
f 151 33 24
f 151 163 33
f 24 33 152
f 152 33 164
f 152 165 153
f 152 164 165
f 153 165 25
f 25 165 34
f 25 35 154
f 25 34 35
f 154 35 155
f 155 35 166
f 155 36 26
f 155 166 36
f 26 36 156
f 156 36 167
f 156 37 157
f 156 167 37
f 27 168 158
f 27 38 168
f 158 168 28
f 28 168 39
f 28 40 29
f 28 39 40
f 29 40 30
f 30 40 41
f 30 169 159
f 30 41 169
f 159 169 31
f 31 169 42
f 31 170 160
f 31 42 170
f 160 170 32
f 32 170 43
f 32 171 161
f 32 43 171
f 161 171 162
f 162 171 172
f 162 173 163
f 162 172 173
f 163 173 33
f 33 173 44
f 33 174 164
f 33 44 174
f 164 174 165
f 165 174 175
f 165 45 34
f 165 175 45
f 34 45 35
f 35 45 46
f 35 176 166
f 35 46 176
f 166 176 36
f 36 176 47
f 36 177 167
f 36 47 177
f 167 177 37
f 37 177 48
f 38 49 168
f 168 49 178
f 168 50 39
f 168 178 50
f 39 50 40
f 40 50 51
f 40 52 41
f 40 51 52
f 41 52 169
f 169 52 179
f 169 53 42
f 169 179 53
f 42 53 170
f 170 53 180
f 170 54 43
f 170 180 54
f 43 54 171
f 171 54 181
f 171 182 172
f 171 181 182
f 172 182 173
f 173 182 183
f 173 55 44
f 173 183 55
f 44 55 174
f 174 55 184
f 174 185 175
f 174 184 185
f 175 185 45
f 45 185 56
f 45 57 46
f 45 56 57
f 46 57 176
f 176 57 186
f 176 58 47
f 176 186 58
f 47 58 177
f 177 58 187
f 177 59 48
f 177 187 59
f 49 189 178
f 49 188 189
f 178 189 50
f 50 189 190
f 50 60 51
f 50 190 60
f 51 60 52
f 52 60 191
f 52 192 179
f 52 191 192
f 179 192 53
f 53 192 193
f 53 194 180
f 53 193 194
f 180 194 54
f 54 194 61
f 54 195 181
f 54 61 195
f 181 195 182
f 182 195 196
f 182 197 183
f 182 196 197
f 183 197 55
f 55 197 62
f 55 198 184
f 55 62 198
f 184 198 185
f 185 198 199
f 185 63 56
f 185 199 63
f 56 63 57
f 57 63 200
f 57 201 186
f 57 200 201
f 186 201 58
f 58 201 64
f 58 202 187
f 58 64 202
f 187 202 59
f 59 202 203
f 188 65 189
f 189 65 66
f 189 67 190
f 189 66 67
f 190 67 60
f 60 67 68
f 60 69 191
f 60 68 69
f 191 69 192
f 192 69 70
f 192 71 193
f 192 70 71
f 193 71 194
f 194 71 72
f 194 73 61
f 194 72 73
f 61 73 195
f 195 73 74
f 195 75 196
f 195 74 75
f 196 75 197
f 197 75 76
f 197 77 62
f 197 76 77
f 62 77 198
f 198 77 78
f 198 79 199
f 198 78 79
f 199 79 63
f 63 79 80
f 63 81 200
f 63 80 81
f 200 81 201
f 201 81 82
f 201 83 64
f 201 82 83
f 64 83 202
f 202 83 84
f 202 85 203
f 202 84 85
f 66 86 67
f 86 87 67
f 67 88 68
f 67 87 88
f 87 89 88
f 68 88 69
f 88 89 69
f 71 90 72
f 72 91 73
f 72 90 91
f 90 92 91
f 73 91 74
f 91 93 74
f 91 92 93
f 92 94 93
f 74 95 75
f 74 93 95
f 93 204 95
f 93 205 204
f 93 94 205
f 94 96 205
f 75 95 76
f 95 97 76
f 95 204 97
f 204 206 97
f 204 205 206
f 205 207 206
f 205 96 207
f 96 98 207
f 76 97 77
f 97 99 77
f 97 100 99
f 97 206 100
f 206 101 100
f 206 207 101
f 207 98 101
f 98 102 101
f 77 99 78
f 99 103 78
f 99 100 103
f 100 208 103
f 100 101 208
f 101 209 208
f 101 102 209
f 102 104 209
f 78 105 79
f 78 103 105
f 103 208 105
f 208 210 105
f 208 209 210
f 209 211 210
f 209 104 211
f 104 106 211
f 79 105 80
f 105 107 80
f 105 210 107
f 210 211 107
f 211 106 107
f 106 108 107
f 80 107 81
f 107 108 81
f 108 109 81
f 81 109 82
f 109 110 82
f 82 111 83
f 82 110 111
f 110 112 111
f 83 111 84
f 111 112 84
f 112 113 84
f 2 3 114
f 114 3 115
f 3 4 116
f 3 116 115
f 115 116 117
f 4 5 116
f 116 5 117
f 7 8 118
f 8 9 119
f 8 119 118
f 118 119 120
f 9 10 119
f 119 10 121
f 119 121 120
f 120 121 122
f 10 11 123
f 10 123 121
f 121 123 212
f 121 212 213
f 121 213 122
f 122 213 124
f 11 12 123
f 123 12 125
f 123 125 212
f 212 125 214
f 212 214 213
f 213 214 215
f 213 215 124
f 124 215 126
f 12 13 125
f 125 13 127
f 125 127 128
f 125 128 214
f 214 128 129
f 214 129 215
f 215 129 126
f 126 129 130
f 13 14 127
f 127 14 131
f 127 131 128
f 128 131 216
f 128 216 129
f 129 216 217
f 129 217 130
f 130 217 132
f 14 15 133
f 14 133 131
f 131 133 216
f 216 133 218
f 216 218 217
f 217 218 219
f 217 219 132
f 132 219 134
f 15 16 133
f 133 16 135
f 133 135 218
f 218 135 219
f 219 135 134
f 134 135 136
f 16 17 135
f 135 17 136
f 136 17 137
f 17 18 137
f 137 18 138
f 18 19 139
f 18 139 138
f 138 139 140
f 19 20 139
f 139 20 140
f 140 20 141
